<?xml version="1.0" encoding="UTF-8"?>
<svg version="1.1" xmlns="http://www.w3.org/2000/svg" width="512" height="512">
<path d="M0 0 C1.8665318 -0.00543625 3.73305929 -0.01256724 5.59957886 -0.02124023 C10.61619194 -0.03929806 15.63247176 -0.03247943 20.64908981 -0.01972389 C25.9315141 -0.00950435 31.21391232 -0.01901417 36.49633789 -0.02526855 C45.36251886 -0.03251913 54.22856598 -0.0230256 63.09472656 -0.00390625 C73.30418533 0.01785741 83.51332442 0.01080421 93.72277546 -0.01121187 C102.53268043 -0.02944005 111.34248989 -0.03188812 120.15240765 -0.0214572 C125.39479997 -0.01526285 130.63704269 -0.01427357 135.87942505 -0.02760315 C140.81107462 -0.03926972 145.74231728 -0.0309414 150.67392349 -0.00802612 C152.46962945 -0.00279616 154.26537045 -0.00415298 156.06106186 -0.01307678 C184.43611129 -0.14094582 208.3411389 9.57567028 228.90234375 29.39257812 C248.80112388 49.88118169 255.29078806 75.62574767 254.98828125 103.42773438 C254.3071609 129.00346634 241.6812679 150.87736 223.71484375 168.51757812 C220.47511592 171.31985608 217.1618324 173.97533053 213.71484375 176.51757812 C214.41609375 177.07445312 215.11734375 177.63132813 215.83984375 178.20507812 C236.48224217 194.80874642 250.78261101 215.93023013 254.71484375 242.51757812 C256.46032869 271.92117475 251.57718132 297.47393715 231.79272461 320.16210938 C215.14650766 338.63517191 192.74258428 351.05969251 167.64575195 352.72070312 C164.4156394 352.82035951 161.19642319 352.84657675 157.96484375 352.83007812 C156.82249268 352.82516357 155.6801416 352.82024902 154.50317383 352.81518555 C132.78300706 352.51465106 109.44310975 345.24584413 93.71484375 329.51757812 C93.71119812 330.70535858 93.70755249 331.89313904 93.70379639 333.11691284 C93.66664001 344.38403249 93.60864503 355.65088403 93.53094101 366.917799 C93.49165624 372.70839341 93.45937538 378.49884006 93.44384766 384.28955078 C93.42855492 389.89188066 93.39388954 395.49380378 93.34653473 401.09595108 C93.33184982 403.21901003 93.32381027 405.3421271 93.3229599 407.46523666 C93.30997452 423.64946441 92.07198805 439.37257356 85.46484375 454.39257812 C85.16674805 455.08762451 84.86865234 455.7826709 84.56152344 456.4987793 C79.36572164 468.19203105 71.61026135 477.49379952 62.71484375 486.51757812 C61.99683594 487.24847656 61.27882812 487.979375 60.5390625 488.73242188 C51.47181489 497.35569879 40.59980786 503.11538221 28.96484375 507.45507812 C28.20961426 507.73746338 27.45438477 508.01984863 26.67626953 508.31079102 C2.36479885 516.88682657 -25.51483117 514.42000548 -48.5703125 503.42382812 C-71.31812235 492.02949278 -88.81134308 471.6703374 -97.25390625 447.74023438 C-97.59421875 446.67675781 -97.93453125 445.61328125 -98.28515625 444.51757812 C-98.60484375 443.54691406 -98.92453125 442.57625 -99.25390625 441.57617188 C-105.69783472 417.73960315 -101.89063613 391.08598582 -90.28515625 369.51757812 C-82.74845343 356.47175841 -72.36608844 345.42759319 -60.28515625 336.51757812 C-60.98640625 335.96070313 -61.68765625 335.40382813 -62.41015625 334.83007812 C-83.05255467 318.22640983 -97.35292351 297.10492612 -101.28515625 270.51757812 C-103.02994491 241.12571073 -98.15498467 215.54313446 -78.35961914 192.87109375 C-72.8483025 186.74762417 -66.8300246 181.53066877 -60.28515625 176.51757812 C-61.16816406 175.80214844 -62.05117187 175.08671875 -62.9609375 174.34960938 C-83.09378434 157.75734719 -97.68195203 136.92716375 -101.28515625 110.51757812 C-103.19845152 83.0794751 -98.85241926 57.04214794 -80.71484375 35.45898438 C-58.90242275 10.75928562 -32.46379493 -0.16133089 0 0 Z M-56.4140625 57.06054688 C-67.64490437 72.31799728 -71.15870038 89.46170996 -68.8515625 108.00195312 C-65.48153977 125.16604407 -55.61912541 139.49703291 -41.4453125 149.51367188 C-26.22828778 159.16303366 -10.81313369 161.00019579 6.7109375 160.81054688 C8.10550575 160.80611838 9.50007905 160.80306876 10.89465332 160.8013916 C15.98062777 160.78586725 21.06649443 160.74398551 26.15234375 160.70507812 C37.55796875 160.64320313 48.96359375 160.58132812 60.71484375 160.51757812 C60.71484375 118.27757812 60.71484375 76.03757812 60.71484375 32.51757812 C42.61640625 32.39382812 42.61640625 32.39382812 24.15234375 32.26757812 C20.37337646 32.23116211 16.59440918 32.19474609 12.70092773 32.15722656 C9.24836688 32.14383094 9.24836688 32.14383094 5.79579163 32.13580322 C4.28390258 32.12974836 2.77203011 32.11586713 1.26026917 32.09527588 C-21.84820991 31.79685984 -41.29084883 38.99593752 -56.4140625 57.06054688 Z M92.71484375 32.51757812 C92.71484375 74.75757813 92.71484375 116.99757813 92.71484375 160.51757812 C109.82328125 160.61039062 109.82328125 160.61039062 127.27734375 160.70507812 C132.63255249 160.74604614 132.63255249 160.74604614 138.09594727 160.7878418 C141.36223174 160.79788948 141.36223174 160.79788948 144.62852478 160.8039093 C146.05706099 160.80844566 147.48558747 160.81884574 148.91404724 160.83430481 C161.99635988 160.96851515 175.28353946 160.22629961 187.02734375 153.83007812 C187.69193604 153.47977539 188.35652832 153.12947266 189.04125977 152.76855469 C204.46513639 144.39607495 215.11025222 131.1220531 220.74609375 114.47070312 C225.5362245 96.640772 223.03618076 78.65712832 213.82421875 62.65429688 C203.56494822 47.39838162 189.16603104 37.44370289 171.2755127 33.12631226 C164.27281353 31.92912654 157.21695477 32.15301241 150.13671875 32.22460938 C148.65967144 32.22903259 147.18261939 32.23208549 145.70556641 32.23376465 C140.29191943 32.24935016 134.8783738 32.29123326 129.46484375 32.33007812 C111.27359375 32.42289063 111.27359375 32.42289063 92.71484375 32.51757812 Z M-55.53515625 216.20507812 C-67.15988249 231.62514619 -71.26676575 248.91463483 -68.8515625 267.93164062 C-65.63438548 284.35722763 -56.26302847 298.72486765 -42.9296875 308.74023438 C-27.98000175 318.78765981 -12.29160288 321.15483144 5.24609375 320.90820312 C6.67935559 320.90229739 8.11262618 320.8982319 9.54589844 320.89599609 C14.76901465 320.87530938 19.99194432 320.81946731 25.21484375 320.76757812 C42.78734375 320.64382813 42.78734375 320.64382813 60.71484375 320.51757812 C60.71484375 278.27757812 60.71484375 236.03757812 60.71484375 192.51757812 C48.99984375 192.43507812 37.28484375 192.35257813 25.21484375 192.26757812 C21.54939453 192.23116211 17.88394531 192.19474609 14.10742188 192.15722656 C10.7506788 192.14382875 10.7506788 192.14382875 7.3939209 192.13580322 C5.92707427 192.1297591 4.46024433 192.11590192 2.99353027 192.09527588 C-19.87259776 191.79048412 -40.22906046 198.27928517 -55.53515625 216.20507812 Z M110.71484375 212.51757812 C110.0909375 213.10796875 109.46703125 213.69835937 108.82421875 214.30664062 C98.05148844 225.32199999 92.85893178 241.42409549 92.33984375 256.51757812 C92.95407135 274.37742676 99.81427575 290.19332416 112.71484375 302.51757812 C113.42382812 303.23429687 114.1328125 303.95101562 114.86328125 304.68945312 C126.41744256 315.78478492 141.9553225 320.55406279 157.71484375 321.01757812 C176.84994536 320.45478102 193.61016739 313.07191567 206.93359375 299.20898438 C219.4274357 284.57677332 224.05638287 267.45028515 222.71484375 248.51757812 C220.58459186 231.74424342 211.70481995 217.05845939 198.90234375 206.20507812 C171.41356433 185.55682446 134.80196817 188.1742077 110.71484375 212.51757812 Z M-33.59765625 359.20507812 C-34.26152344 359.55393066 -34.92539063 359.9027832 -35.609375 360.26220703 C-51.34830069 368.78618259 -61.56098206 381.84762729 -67.38671875 398.70507812 C-71.67674866 414.74257311 -70.13288576 431.52903675 -62.53515625 446.33007812 C-52.58879174 463.14893068 -38.31705569 474.55968836 -19.28515625 479.51757812 C-1.58668932 483.15923799 15.30913911 479.63673188 30.71484375 470.51757812 C46.06966975 460.08988855 54.90750729 446.23385791 59.71484375 428.51757812 C60.51827783 423.76194474 60.83721294 419.20878447 60.82836914 414.38891602 C60.82858818 413.37788818 60.82858818 413.37788818 60.82881165 412.34643555 C60.82812144 410.14433441 60.82037139 407.94232053 60.8125 405.74023438 C60.81063264 404.20324245 60.80921024 402.66624993 60.80821228 401.1292572 C60.80441212 397.10320362 60.79460345 393.07718667 60.7835083 389.05114746 C60.77324015 384.93514501 60.76870313 380.81913659 60.76367188 376.703125 C60.75297872 368.64125931 60.73593266 360.57942329 60.71484375 352.51757812 C51.71669363 352.44756494 42.71863962 352.39450964 33.72027493 352.36214161 C29.540387 352.34659384 25.36068765 352.32555909 21.1809082 352.29125977 C17.13489536 352.25827209 13.089062 352.24064365 9.04292488 352.2329464 C7.51182295 352.2274726 5.98072901 352.21678767 4.44970512 352.20038795 C-8.6110236 352.06625924 -21.87413624 352.8222026 -33.59765625 359.20507812 Z " fill="#000000" transform="translate(179.28515625,-0.517578125)"/>
</svg>
