<svg width="1035" height="113" viewBox="0 0 1035 113" fill="none" xmlns="http://www.w3.org/2000/svg">
<path d="M377 8C377 3.58172 380.582 0 385 0H1027C1031.42 0 1035 3.58172 1035 8V13C1035 17.4183 1031.42 21 1027 21H385C380.582 21 377 17.4183 377 13V8Z" fill="#00C3FF"/>
<path d="M738 21H721V27.043C726.5 21.5 732 21 738 21Z" fill="#00C3FF" stroke="#00C3FF" stroke-width="0.01"/>
<path d="M739.686 9.65706C743.013 6.56476 740.826 0.996608 736.284 0.994723L357.82 0.837659V112.838L620.634 112.995C625.689 112.998 630.559 111.087 634.262 107.645L739.686 9.65706Z" fill="#00C3FF"/>
<path d="M739.5 9.5C742.828 6.40701 740.639 0.837659 736.096 0.837659H357.82V112.838H620.46C625.512 112.838 630.376 110.926 634.076 107.487L739.5 9.5Z" fill="#00C3FF"/>
<path d="M738.68 8.66234C742.008 5.56935 739.819 0 735.276 0H357V112H569.5C583.645 112 608.394 112.308 625 108.5C634.809 106.251 641.126 99.7771 642.5 98.5L738.68 8.66234Z" fill="#00C3FF"/>
<path d="M9.22116 8.64723C5.91507 5.54691 8.109 0 12.6414 0H391V113H128.411C123.328 113 118.437 111.065 114.73 107.589L9.22116 8.64723Z" fill="#00C3FF"/>
<path d="M9.31975 8.73968C5.99203 5.61908 8.18059 0 12.7238 0H391V113H128.359C123.308 113 118.443 111.071 114.743 107.602L9.31975 8.73968Z" fill="#00C3FF"/>
</svg>
