<?xml version="1.0" encoding="UTF-8"?>
<svg version="1.1" xmlns="http://www.w3.org/2000/svg" width="512" height="512">
<path d="M0 0 C1.94524063 -0.01506844 1.94524063 -0.01506844 3.92977905 -0.03044128 C5.37541141 -0.03647169 6.82104438 -0.04235667 8.26667786 -0.04811096 C9.78269163 -0.05764736 11.29870321 -0.06753843 12.81471252 -0.07775879 C17.80233672 -0.10917248 22.78997773 -0.12941565 27.77766418 -0.14796448 C28.62608202 -0.1512618 29.47449986 -0.15455912 30.34862733 -0.15795636 C38.34981772 -0.1887415 46.35101185 -0.21545051 54.35224438 -0.23237514 C64.58750011 -0.25427851 74.82223101 -0.29623709 85.0572769 -0.36581272 C92.25311787 -0.41306714 99.44881733 -0.43731072 106.64480859 -0.44457203 C110.9427416 -0.44952675 115.24008341 -0.46458928 119.53784752 -0.50431633 C123.58376357 -0.54122145 127.62875175 -0.54958025 131.67480469 -0.5363102 C133.15706916 -0.53636408 134.63937514 -0.54663631 136.12148476 -0.56806183 C148.70353578 -0.74017518 148.70353578 -0.74017518 153.29666138 3.07919312 C156.78208425 6.73493799 157.05233167 9.21438958 157.08282471 14.23843384 C157.09287033 15.53526093 157.10291595 16.83208801 157.11326599 18.16821289 C157.1192964 19.61384525 157.12518137 21.05947821 157.13093567 22.50511169 C157.14047207 24.02112547 157.15036314 25.53713705 157.1605835 27.05314636 C157.19199719 32.04077055 157.21224036 37.02841156 157.23078918 42.01609802 C157.23408651 42.86451586 157.23738383 43.7129337 157.24078107 44.58706117 C157.2715662 52.58825156 157.29827521 60.58944568 157.31519985 68.59067822 C157.33710322 78.82593395 157.37906179 89.06066484 157.44863743 99.29571074 C157.49589185 106.49155171 157.52013543 113.68725117 157.52739674 120.88324243 C157.53235146 125.18117544 157.54741399 129.47851724 157.58714104 133.77628136 C157.62404616 137.8221974 157.63240496 141.86718559 157.6191349 145.91323853 C157.61918879 147.395503 157.62946101 148.87780897 157.65088654 150.35991859 C157.82299989 162.94196962 157.82299989 162.94196962 154.00363159 167.53509521 C150.8832282 170.51011829 148.7648521 171.28566092 144.47590637 171.33763123 C143.55444824 171.35046646 142.63299011 171.3633017 141.68360901 171.37652588 C140.68468628 171.38391281 139.68576355 171.39129974 138.65657043 171.39891052 C137.63041626 171.40698227 136.60426208 171.41505402 135.54701233 171.42337036 C133.3714721 171.43721816 131.19591008 171.44793719 129.02033997 171.45579529 C125.69944302 171.47298821 122.37954658 171.51686649 119.05891418 171.5610199 C116.94564026 171.57114846 114.83235786 171.57966405 112.71907043 171.58641052 C111.72824463 171.60391861 110.73741882 171.6214267 109.71656799 171.63946533 C104.00408224 171.6215734 100.23996601 171.30345714 95.92219543 167.16062927 C92.56044451 161.08274143 92.45275809 155.61130516 92.41047668 148.75828552 C92.39252548 147.68058395 92.37457428 146.60288239 92.3560791 145.49252319 C92.30214097 142.06943101 92.26813267 138.64647697 92.23469543 135.22312927 C92.20150788 132.89433408 92.16701689 130.56555707 92.13117981 128.23680115 C92.046424 122.54486777 91.97800452 116.85291614 91.92219543 111.16062927 C91.53225993 111.55132422 91.14232442 111.94201916 90.74057269 112.34455335 C67.64035903 135.48950297 44.5349429 158.62924471 21.42273675 181.76221862 C18.648918 184.53853884 15.87514285 187.31490263 13.10139465 190.09129333 C12.54918016 190.64403245 11.99696567 191.19677156 11.42801741 191.76626034 C2.48148859 200.7214967 -6.46150164 209.68025882 -15.40319386 218.64032416 C-24.57521403 227.83103367 -33.75101564 237.01795502 -42.93035388 246.20135558 C-48.59641136 251.87016012 -54.25948281 257.54191447 -59.91879526 263.2174529 C-64.25539917 267.56585776 -68.59724974 271.90898823 -72.9411068 276.25014687 C-74.72467284 278.03426473 -76.50651576 279.82010704 -78.28653145 281.60776711 C-80.71093505 284.04207378 -83.14137592 286.4701863 -85.57347107 288.89680481 C-86.28164514 289.61080456 -86.98981921 290.32480431 -87.7194531 291.06044042 C-88.37184547 291.7088507 -89.02423785 292.35726098 -89.69639969 293.02532005 C-90.5371005 293.86716003 -90.5371005 293.86716003 -91.39478517 294.72600687 C-94.58204815 297.4428614 -97.35370829 298.45149186 -101.51530457 298.47312927 C-102.2565155 298.48988708 -102.99772644 298.5066449 -103.76139832 298.52391052 C-109.75684751 297.58364615 -113.7895339 292.74184351 -117.87467957 288.62937927 C-118.50891846 287.99705383 -119.14315735 287.36472839 -119.7966156 286.71324158 C-121.1302721 285.38094146 -122.46142472 284.04613072 -123.79020691 282.70896912 C-125.82787926 280.66055418 -127.87604238 278.62306611 -129.92546082 276.58641052 C-131.2216758 275.28887454 -132.51727058 273.99071862 -133.81217957 272.69187927 C-134.42567261 272.08243469 -135.03916565 271.47299011 -135.67124939 270.84507751 C-136.23563721 270.27438538 -136.80002502 269.70369324 -137.3815155 269.1157074 C-137.87939575 268.61623596 -138.377276 268.11676453 -138.89024353 267.60215759 C-141.07041178 264.95574686 -141.28207151 262.14638916 -141.39030457 258.84812927 C-141.42768738 258.10949646 -141.46507019 257.37086365 -141.50358582 256.60984802 C-140.34977371 249.97278205 -134.22054909 245.0248431 -129.6493988 240.49171448 C-128.89869102 239.73929785 -128.14798324 238.98688122 -127.37452674 238.21166408 C-124.8627024 235.69655058 -122.3438061 233.18864309 -119.82487488 230.6806488 C-118.02092253 228.87726069 -116.21741064 227.07343188 -114.41430664 225.26919556 C-110.53384613 221.38827989 -106.65034665 217.51044619 -102.76403046 213.63539505 C-97.14512775 208.03276893 -91.53177715 202.42460696 -85.91975209 196.81509267 C-76.81374799 187.71346228 -67.70328956 178.61630418 -58.5900116 169.5219574 C-49.73903159 160.68934456 -40.89016141 151.85462679 -32.04411316 143.01707458 C-31.49854386 142.47203074 -30.95297457 141.92698689 -30.39087287 141.36542656 C-27.65383595 138.63099977 -24.91684038 135.8965316 -22.17986536 133.16204286 C0.51441477 110.48848515 23.21593102 87.82218562 45.92219543 65.16062927 C45.32608459 65.15698364 44.72997375 65.15333801 44.11579895 65.14958191 C37.88567253 65.1076227 31.65627362 65.03818356 25.42658997 64.95310974 C23.10472404 64.92496395 20.78276344 64.90371778 18.46076965 64.88963318 C15.11408745 64.86811572 11.76853595 64.82141803 8.42219543 64.77000427 C7.39167053 64.76877563 6.36114563 64.767547 5.2993927 64.76628113 C-1.24369665 64.63468271 -5.47832579 63.60274397 -11.07780457 60.16062927 C-15.16737034 55.81391233 -14.56247967 50.28418833 -14.58171082 44.63719177 C-14.59169601 43.61765411 -14.60168121 42.59811646 -14.61196899 41.54768372 C-14.62713314 39.3942927 -14.63419532 37.24083144 -14.63371277 35.08738708 C-14.64026925 31.8033205 -14.69475689 28.52228558 -14.75163269 25.23875427 C-14.76043648 23.1424104 -14.76638954 21.04605223 -14.76921082 18.94969177 C-14.79076736 17.97343842 -14.81232391 16.99718506 -14.83453369 15.99134827 C-14.77453485 9.98288822 -13.79391042 6.74955231 -9.56130981 2.41023254 C-6.45058957 -0.21002525 -3.98126671 0.02416398 0 0 Z " fill="#000000" transform="translate(355.0778045654297,-0.1606292724609375)"/>
<path d="M0 0 C1.78423379 -0.00407765 3.56846505 -0.00942614 5.35269165 -0.01593018 C10.14132298 -0.02945798 14.92975769 -0.02436877 19.7183919 -0.01479292 C24.75191257 -0.00713196 29.78541779 -0.01425853 34.81893921 -0.01895142 C43.25627635 -0.02438537 51.69353429 -0.01727444 60.13085938 -0.00292969 C69.87468156 0.01344532 79.61831586 0.00806374 89.36213362 -0.0084089 C97.75573858 -0.02202814 106.14928706 -0.02394288 114.54289949 -0.0160929 C119.54461842 -0.0114256 124.54624899 -0.01076664 129.54796219 -0.02070236 C134.24149511 -0.02937799 138.93478534 -0.02333927 143.62829208 -0.00601959 C145.34757332 -0.00206022 147.06687506 -0.00317937 148.78614807 -0.00980759 C151.13680956 -0.01803376 153.48669824 -0.00768989 155.83731079 0.00723267 C157.15090891 0.00836374 158.46450703 0.00949482 159.81791115 0.01066017 C165.32513349 0.57931062 169.22072858 1.87091897 172.84912109 6.26318359 C175.64209131 11.63428016 175.63337989 16.76344014 175.64208984 22.72412109 C175.64541824 23.5216983 175.64874664 24.31927551 175.6521759 25.14102173 C175.65722422 26.82366359 175.65958488 28.50631541 175.65942383 30.18896484 C175.6616079 32.74772842 175.67977905 35.30605881 175.69873047 37.86474609 C175.70166541 39.50536963 175.70364953 41.1459952 175.70458984 42.78662109 C175.71177536 43.54413666 175.71896088 44.30165222 175.72636414 45.0821228 C175.7002699 51.22353641 175.14205944 56.4700545 170.97412109 61.26318359 C166.96314145 64.67251629 164.73355257 64.51597259 159.49864197 64.5262146 C158.77232734 64.52903588 158.04601271 64.53185716 157.29768854 64.53476393 C154.85119902 64.54313143 152.40475463 64.54445004 149.95825195 64.54589844 C148.20903393 64.55056525 146.45981713 64.55570859 144.71060181 64.56129456 C140.93629507 64.57258954 137.16199631 64.58101711 133.38767815 64.58741379 C127.41593857 64.59808368 121.44425587 64.61832739 115.47254944 64.64053345 C98.48848078 64.70248663 81.50441479 64.75642742 64.52026367 64.78955078 C55.145613 64.80791419 45.77105695 64.83687486 36.39647585 64.87755549 C31.43583694 64.89860259 26.47531718 64.91407945 21.51463127 64.91636276 C16.84343371 64.91851519 12.17248389 64.93444522 7.50136185 64.96075249 C5.79100601 64.96792524 4.08062009 64.97005631 2.37025261 64.96665001 C-9.88052861 64.89145306 -9.88052861 64.89145306 -21.52587891 68.38818359 C-25.72569476 72.58799945 -26.6494976 75.99264716 -26.66009998 81.79780197 C-26.66678675 83.4932166 -26.66678675 83.4932166 -26.6736086 85.22288203 C-26.67342424 86.47003592 -26.67323988 87.7171898 -26.67304993 89.00213623 C-26.67634883 90.33617296 -26.68007445 91.67020868 -26.68419141 93.00424314 C-26.69421648 96.67806222 -26.69792901 100.35186497 -26.70058072 104.0256958 C-26.70448223 107.98492122 -26.71406063 111.94413368 -26.72279358 115.90335083 C-26.74256162 125.468398 -26.75262432 135.03344623 -26.76152137 144.59850872 C-26.76590344 149.10141181 -26.77127043 153.60431372 -26.77651024 158.10721588 C-26.79352234 173.07312654 -26.80801717 188.03903645 -26.81525898 203.00495529 C-26.81716891 206.88920849 -26.81908924 210.77346167 -26.82104492 214.65771484 C-26.82177053 216.10585461 -26.82177053 216.10585461 -26.8225108 217.58324972 C-26.83081357 233.22736065 -26.85615472 248.87139518 -26.8886256 264.51547274 C-26.92168116 280.57194926 -26.93970635 296.62838693 -26.94290322 312.68489766 C-26.94506964 321.70207662 -26.95383761 330.71914415 -26.9793644 339.73628998 C-27.00105081 347.41463907 -27.00913196 355.09284966 -26.99939761 362.7712259 C-26.994847 366.68908776 -26.99678309 370.60666373 -27.01615906 374.52448654 C-27.03374952 378.1122498 -27.03282701 381.69951773 -27.01726177 385.28728595 C-27.01375209 387.19771674 -27.02994274 389.10815248 -27.04686624 391.01851153 C-26.99706409 397.63899771 -26.79367123 402.16860218 -22.52587891 407.38818359 C-17.05256799 411.68325748 -10.17527024 410.8049466 -3.54443359 410.76913452 C-2.20709222 410.77259272 -0.86975369 410.77735837 0.46757889 410.78331625 C4.13662681 410.79583379 7.80544048 410.78965253 11.47448921 410.7803576 C15.43365182 410.77357051 19.39277411 410.78404665 23.35192871 410.79229736 C31.10559487 410.80564053 38.85917393 410.80275436 46.61284351 410.79405944 C52.91414416 410.7872856 59.21542039 410.78636488 65.51672363 410.78963089 C66.86173128 410.79032044 66.86173128 410.79032044 68.2339108 410.79102392 C70.05545521 410.79198309 71.87699962 410.79295573 73.69854403 410.79394169 C90.78107848 410.80249729 107.86356464 410.79265878 124.94609118 410.77654059 C139.60519825 410.76313726 154.26423406 410.7654653 168.92333984 410.77929688 C185.94455006 410.79534968 202.96571794 410.8016733 219.98693466 410.79246008 C221.80179595 410.79150443 223.61665725 410.79056132 225.43151855 410.78963089 C226.77095485 410.78893665 226.77095485 410.78893665 228.13745046 410.78822839 C234.43152841 410.7856376 240.72557952 410.79001141 247.01965332 410.79706955 C254.68953789 410.80548141 262.35933035 410.80321102 270.02920437 410.78722732 C273.94285591 410.77934036 277.85635385 410.77626018 281.77000427 410.78617477 C285.3526052 410.79511347 288.93491012 410.79020266 292.51748419 410.77424212 C294.42749531 410.76930307 296.33752698 410.77909826 298.24751663 410.78941381 C306.30265106 410.79483749 306.30265106 410.79483749 313.47412109 407.38818359 C318.18705017 401.52886636 318.59799407 396.70755332 318.60542297 389.37342834 C318.60753869 388.67918571 318.6096544 387.98494308 318.61183423 387.2696628 C318.61781237 384.94986012 318.61683565 382.63011217 318.6159668 380.31030273 C318.61899969 378.64444385 318.6225215 376.97858579 318.62649536 375.31272888 C318.63437379 371.72835765 318.63952525 368.14399633 318.64278603 364.559618 C318.64870313 358.89090565 318.66524934 353.22225584 318.68412781 347.55357361 C318.69046481 345.61192802 318.69679044 343.6702824 318.70310497 341.72863674 C318.70627078 340.75640348 318.7094366 339.78417022 318.71269834 338.78247535 C318.75476248 325.58766055 318.78776107 312.39287547 318.80004883 299.19799805 C318.80842621 290.29357603 318.8309023 281.3893095 318.86940449 272.48496526 C318.88917096 267.77426224 318.90156765 263.06379167 318.89657021 258.35304451 C318.89192753 253.92305574 318.90570816 249.49350802 318.93358231 245.06360817 C318.94049967 243.43906858 318.94061476 241.81448344 318.93338203 240.18994522 C318.92449506 237.96941328 318.9401822 235.75033639 318.96186829 233.52992249 C318.96425664 232.28830888 318.96664499 231.04669527 318.96910572 229.76745701 C319.69856561 224.88632954 321.90868502 221.75435281 325.59155273 218.5402832 C329.90435747 216.81654935 333.99062744 216.9402049 338.59521484 216.95458984 C339.57273209 216.94934799 340.55024933 216.94410614 341.55738831 216.93870544 C343.62085014 216.93229363 345.68434856 216.93361134 347.74780273 216.94213867 C350.89747501 216.95064539 354.04533111 216.92188018 357.19482422 216.89013672 C359.20328722 216.88852443 361.21175342 216.88910277 363.22021484 216.89208984 C364.15788193 216.88085587 365.09554901 216.86962189 366.06163025 216.85804749 C371.85279034 216.91947912 375.02323845 217.61150397 379.47412109 221.38818359 C383.35121647 225.80005074 383.60096524 229.48838004 383.61456299 235.24026489 C383.61901967 236.29192504 383.61901967 236.29192504 383.62356639 237.36483085 C383.63225592 239.72044612 383.63376192 242.07601058 383.63525391 244.43164062 C383.63988236 246.11876535 383.64490706 247.80588902 383.65029907 249.49301147 C383.66343327 254.08473753 383.66987147 258.67644895 383.67430973 263.26819086 C383.67724233 266.14230578 383.68134777 269.01641672 383.6858139 271.89052963 C383.69949925 280.89752023 383.70915754 289.90450172 383.71301579 298.911502 C383.7174818 309.27909245 383.7349572 319.64655009 383.76401639 330.01410019 C383.78572961 338.04238814 383.79572539 346.07063903 383.79705691 354.09895599 C383.79809922 358.88548187 383.80388201 363.67188311 383.82187653 368.45837784 C383.8385217 372.97444457 383.84043417 377.49029525 383.83173752 382.00638199 C383.83097551 383.65050847 383.83519715 385.29464734 383.84519577 386.93874359 C383.99224177 412.65926141 377.74229498 434.50508847 359.78662109 453.63818359 C343.55809877 469.11189093 323.32140605 475.88062985 301.11076355 475.77586365 C299.70851048 475.78004693 298.3062608 475.78552985 296.90401727 475.79218346 C293.08767472 475.80652669 289.27155018 475.80242857 285.45519626 475.79501665 C281.32486232 475.79025942 277.19457382 475.80281732 273.06425476 475.81303406 C264.98668411 475.83017801 256.90919141 475.83107119 248.8316073 475.82582115 C242.26168052 475.82176974 235.69177667 475.82323452 229.12185097 475.82856941 C227.71598814 475.82969205 227.71598814 475.82969205 226.28172404 475.83083736 C224.37733568 475.83236893 222.47294732 475.83390728 220.56855897 475.83545233 C202.73315717 475.84916161 184.89779931 475.84375089 167.06239853 475.83226711 C150.77187713 475.82233793 134.48146937 475.83527276 118.1909655 475.8592013 C101.434641 475.88362725 84.67836934 475.8931915 67.92202741 475.88654858 C58.52634044 475.88306392 49.13074081 475.88523842 39.73506737 475.90279961 C31.73624189 475.91756543 23.73756524 475.91810012 15.73874255 475.9007287 C11.66376566 475.89225194 7.58905412 475.88998692 3.51409149 475.90538025 C-33.25703493 476.03444244 -33.25703493 476.03444244 -48.83837891 467.70068359 C-49.49588135 467.3589209 -50.15338379 467.0171582 -50.83081055 466.66503906 C-69.06949181 456.83650297 -81.87347309 440.29521599 -88.51806641 420.87255859 C-91.12869463 411.84666567 -91.81590175 403.88703228 -91.79330444 394.50584412 C-91.79704597 393.10704509 -91.80164949 391.70824816 -91.80703509 390.3094545 C-91.81921879 386.48411915 -91.8190101 382.65887155 -91.81664634 378.83352125 C-91.81623698 374.70039687 -91.82728872 370.5673002 -91.83676147 366.43418884 C-91.85334795 358.34271829 -91.85886999 350.25127688 -91.85998623 342.15979075 C-91.860938 335.57833044 -91.86505471 328.99687971 -91.87138748 322.41542244 C-91.8889949 303.73488186 -91.89822735 285.05436423 -91.89672653 266.37381529 C-91.89664662 265.367529 -91.89656671 264.36124271 -91.89648438 263.32446289 C-91.89640261 262.31694035 -91.89632085 261.30941781 -91.89623661 260.27136428 C-91.89542427 243.95472648 -91.91455034 227.63818111 -91.94276111 211.32157003 C-91.97153304 194.5472972 -91.98529898 177.77306937 -91.98357356 160.99877125 C-91.98291105 151.58960475 -91.98834168 142.18053511 -92.00992966 132.77139091 C-92.02819843 124.75783694 -92.03244238 116.7444237 -92.01891081 108.73085784 C-92.01240925 104.64780233 -92.01216113 100.56501637 -92.02961731 96.481987 C-92.17736828 59.63790469 -92.17736828 59.63790469 -83.77587891 44.01318359 C-83.43298828 43.35382813 -83.09009766 42.69447266 -82.73681641 42.01513672 C-79.6413766 36.24790306 -75.94666355 31.21959448 -71.52587891 26.38818359 C-70.93548828 25.70626953 -70.34509766 25.02435547 -69.73681641 24.32177734 C-51.40879226 4.39492556 -25.74230058 -0.10053478 0 0 Z " fill="#000000" transform="translate(91.52587890625,36.61181640625)"/>
</svg>
